<?xml version="1.0" encoding="UTF-8"?>
<!DOCTYPE svg PUBLIC "-//W3C//DTD SVG 1.1//EN" "http://www.w3.org/Graphics/SVG/1.1/DTD/svg11.dtd">
<svg version="1.1" xmlns="http://www.w3.org/2000/svg" xmlns:xlink="http://www.w3.org/1999/xlink" x="0" y="0" width="360" height="397" viewBox="157, 90, 360, 397">
  <g id="Ebene_1">
    <path d="M390.441,145.181 C392.22,141.154 393.226,136.717 393.226,132.051 C393.226,114.039 378.489,99.302 360.477,99.302 L305.962,99.302 C287.951,99.302 273.213,114.039 273.213,132.051 C273.213,137.437 274.553,142.516 276.882,147.01 C212.256,171.11 166.22,233.369 166.22,306.399 C166.22,400.329 242.361,476.476 336.287,476.476 C430.212,476.476 506.354,400.329 506.354,306.399 C506.354,231.411 457.804,167.805 390.441,145.181" fill="#444444" id="path17058"/>
    <path d="M390.441,145.181 C392.22,141.154 393.226,136.717 393.226,132.051 C393.226,114.039 378.489,99.302 360.477,99.302 L305.962,99.302 C287.951,99.302 273.213,114.039 273.213,132.051 C273.213,137.437 274.553,142.516 276.882,147.01 C212.256,171.11 166.22,233.369 166.22,306.399 C166.22,400.329 242.361,476.476 336.287,476.476 C430.212,476.476 506.354,400.329 506.354,306.399 C506.354,231.411 457.804,167.805 390.441,145.181 z" fill-opacity="0" stroke="#2B2B2A" stroke-width="19.527" id="path17060"/>
    <path d="M296.673,172.124 C285.663,175.805 278.774,179.446 278.774,179.446 C273.138,182.425 253.74,192.86 238.091,210.094 C238.091,210.094 233.011,215.688 228.87,224.739 C225.378,232.371 226.122,234.741 226.7,235.859 C228.492,239.324 233.677,240.556 237.548,240.199 C244.771,239.531 248.248,233.27 255.177,225.553 C262.246,217.682 269.292,212.802 283.384,203.042 C289.946,198.497 298.853,193.033 310.504,187.855 L310.505,187.854 C315.133,186.028 321.049,184.061 321.896,179.718 C322.499,176.623 320.337,173.299 318.099,171.582 C315.037,169.231 311.393,169.547 306.708,169.954 C302.126,170.352 298.703,171.445 296.673,172.124" fill="#FEFEFE" id="path17066"/>
    <path d="M222.583,275.936 C218.269,285.411 209.632,290.75 203.293,287.864 C196.955,284.977 195.313,274.957 199.628,265.483 C203.942,256.009 212.579,250.668 218.917,253.555 C225.256,256.442 226.897,266.462 222.583,275.936" fill="#FEFEFE" id="path17068"/>
  </g>
</svg>
