<?xml version="1.0" encoding="UTF-8"?>
<!DOCTYPE svg PUBLIC "-//W3C//DTD SVG 1.1//EN" "http://www.w3.org/Graphics/SVG/1.1/DTD/svg11.dtd">
<svg version="1.1" xmlns="http://www.w3.org/2000/svg" xmlns:xlink="http://www.w3.org/1999/xlink" x="0" y="0" width="175" height="191" viewBox="0, 62, 175, 191">
  <g id="Ebene_1">
    <path d="M72.157,73.943 C69.131,85.409 66.104,96.875 63.078,108.34 C52.505,104.274 41.932,100.207 31.359,96.14 L42.887,132.541 L4.723,144.182 L34.387,168.25 L16.318,193.424 L47.49,193.609 L47.171,232.155 L79.578,208.2 L101.536,239.844 L111.749,207.536 L141.299,217.695 L131.09,181.769 L167.131,169.154 L138.119,148 L156.364,120.944 L124.71,121.585 L125.499,81.946 C115.162,88.751 104.825,95.555 94.488,102.359 C87.044,92.887 79.6,83.415 72.157,73.943" fill="#FFED00" id="path17052"/>
    <path d="M85.454,111.976 C83.08,117.874 80.704,123.771 78.329,129.669 C72.797,126.842 67.266,124.015 61.735,121.188 L65.761,141.246 L44.144,145.019 L58.869,159.672 L47.401,171.9 L64.449,173.965 L61.855,194.415 L81.095,183.74 L91.128,201.931 L98.743,185.418 L114.278,192.679 L110.944,172.956 L131.46,168.532 L116.91,155.467 L128.592,142.252 L111.227,140.594 L114.145,119.593 C108.063,122.554 101.978,125.514 95.895,128.476 C92.415,122.976 88.935,117.476 85.454,111.976" fill="#EF7F1C" id="path17062"/>
    <path d="M89.069,72.832 C83.944,83.525 78.819,94.219 73.694,104.913 C64.072,98.933 54.45,92.954 44.829,86.974 L49.318,124.893 L9.648,129.161 L34.265,158.371 L11.79,179.705 L42.373,185.738 L34.822,223.54 L71.151,206.095 L86.777,241.299 L102.875,211.483 L129.991,227.009 L126.71,189.805 L164.478,184.182 L139.955,157.957 L162.953,134.807 L131.742,129.494 L139.96,90.708 C128.529,95.451 117.099,100.193 105.668,104.936 C100.135,94.234 94.602,83.533 89.069,72.832 z" fill-opacity="0" stroke="#2B2B2A" stroke-width="9.764" id="path17064"/>
  </g>
</svg>
